<svg width="193" height="23" viewBox="0 0 193 23" fill="none" xmlns="http://www.w3.org/2000/svg">
<path d="M15.8171 18.8868C12.7579 19.3532 9.74588 20.0893 6.81641 21.0865L7.45149 22.7205C7.45149 22.7205 15.4672 19.8626 24.0008 20.0846C32.5344 19.8626 40.5485 22.7205 40.5485 22.7205L41.1034 21.2946C31.1625 17.6722 21.9922 17.9388 15.8171 18.8868Z" fill="white"/>
<path d="M15.6491 18.0152C21.9414 17.0441 31.2889 16.7712 41.4241 20.4677L48 3.52844C48 3.52844 45.936 4.95893 44.9309 6.71621C44.9309 6.71621 42.9625 5.43062 42.4384 6.63759C41.9143 7.84457 42.2842 9.78683 43.7764 11.1248C43.7764 11.1248 40.903 15.4934 37.2821 14.4698C33.6612 13.4463 34.1329 8.21298 34.4088 6.59906C34.4088 6.59906 32.7563 11.5179 28.1643 11.7291C25.5438 11.7553 24.6744 8.94672 24.6744 8.94672C24.6744 8.94672 27.9547 7.29426 27.7466 4.98513C27.4583 3.52844 25.3326 4.43482 25.3326 4.43482C25.3326 4.43482 24.6374 0.997334 24.0008 0C23.3626 0.997334 22.6689 4.43482 22.6689 4.43482C22.6689 4.43482 20.5448 3.52844 20.255 4.98513C20.0392 7.29426 23.3256 8.94056 23.3256 8.94056C23.3256 8.94056 22.4593 11.7491 19.8357 11.7229C15.2436 11.5179 13.5912 6.59906 13.5912 6.59906C13.8733 8.21298 14.3357 13.4463 10.7179 14.4698C7.10003 15.4934 4.22364 11.1248 4.22364 11.1248C5.72041 9.78683 6.08729 7.84457 5.56318 6.63759C5.03908 5.43062 3.06908 6.71621 3.06908 6.71621C2.07328 4.95893 0 3.52844 0 3.52844L6.49269 20.2534C9.47247 19.2376 12.5367 18.4885 15.6491 18.0152Z" fill="white"/>
<path d="M70.6816 15.6871L71.1791 16.6542C70.054 17.4198 69.0134 17.9638 68.0574 18.2861C67.108 18.6018 66.1129 18.7596 65.0724 18.7596C62.8743 18.7596 61.1444 18.1149 59.8827 16.8254C58.6276 15.5293 58 13.7865 58 11.5971C58 9.27338 58.7089 7.403 60.1266 5.98594C61.5443 4.56888 63.5051 3.86035 66.0089 3.86035C66.8088 3.86035 67.5795 3.92751 68.3208 4.06183C69.0687 4.18943 69.9922 4.4312 71.0913 4.78715C71.0522 5.22368 71.0327 5.67701 71.0327 6.14712C71.0327 6.95975 71.0815 7.9537 71.1791 9.12899H70.106C69.7808 7.83953 69.5662 7.08399 69.4622 6.86237C69.2215 6.35867 68.8248 5.93221 68.2721 5.58298C67.7258 5.23376 66.9844 5.05914 66.0479 5.05914C64.6237 5.05914 63.5246 5.50911 62.7507 6.40904C61.8142 7.4903 61.346 8.9846 61.346 10.8919C61.346 12.8664 61.811 14.3708 62.7409 15.405C63.6774 16.4325 64.9358 16.9463 66.5162 16.9463C67.9209 16.9463 69.3093 16.5266 70.6816 15.6871Z" fill="white"/>
<path d="M72.4082 4.90803V4.16257C74.6063 4.23644 75.9037 4.27338 76.3005 4.27338C76.7232 4.27338 77.3345 4.26331 78.1344 4.24316C78.9343 4.2163 79.5229 4.20286 79.9001 4.20286C80.8691 4.20286 81.6235 4.33047 82.1632 4.58567C82.703 4.84088 83.1355 5.24719 83.4607 5.80461C83.7923 6.36203 83.9582 6.98325 83.9582 7.66828C83.9582 8.25256 83.8411 8.8167 83.607 9.36069C83.3729 9.89796 83.0607 10.3546 82.6705 10.7307C82.4169 10.9792 82.0104 11.2479 81.4511 11.5366C81.8933 12.3224 82.5404 13.4339 83.3924 14.8711C84.0167 15.9255 84.4232 16.5568 84.6117 16.765C84.8069 16.9732 85.015 17.1344 85.2361 17.2485C85.5742 17.4097 86.1921 17.5642 87.0895 17.7119V18.4574C85.984 18.3835 85.0832 18.3466 84.3874 18.3466C83.6525 18.3466 82.7485 18.3835 81.6755 18.4574C80.8821 16.5702 79.8643 14.4111 78.6222 11.9799C78.2515 11.9665 77.8645 11.9396 77.4613 11.8993L77.4906 16.09C77.5036 16.6072 77.5458 16.9295 77.6174 17.0571C77.6889 17.178 77.7897 17.2653 77.9198 17.319C78.0108 17.3661 78.5929 17.497 79.6659 17.7119V18.4574C78.1507 18.3835 76.9345 18.3466 76.0176 18.3466C75.1136 18.3466 73.9105 18.3835 72.4082 18.4574V17.7119C73.5138 17.5037 74.1348 17.3426 74.2714 17.2284C74.4145 17.1142 74.5055 16.8892 74.5445 16.5534C74.5641 16.3721 74.5771 14.6495 74.5836 11.3855L74.5738 8.38352C74.5738 6.97318 74.5478 6.12362 74.4958 5.83483C74.4568 5.62664 74.3657 5.47217 74.2226 5.37143C74.0861 5.26398 73.6276 5.13973 72.8472 4.9987L72.4082 4.90803ZM77.4711 10.761C77.7962 10.7744 78.0369 10.7811 78.1929 10.7811C79.1034 10.7811 79.7733 10.5595 80.2025 10.1162C80.6382 9.66626 80.8561 8.9846 80.8561 8.07123C80.8561 7.21159 80.6512 6.55679 80.2415 6.10683C79.8318 5.65014 79.2757 5.4218 78.5734 5.4218C78.2872 5.4218 77.9165 5.44531 77.4613 5.49232L77.4711 10.761Z" fill="white"/>
<path d="M86.7188 11.5366C86.7188 9.23309 87.4017 7.37949 88.7674 5.97587C90.1396 4.56552 91.9768 3.86035 94.279 3.86035C96.4511 3.86035 98.155 4.49501 99.3906 5.76431C100.633 7.02691 101.254 8.71932 101.254 10.8415C101.254 12.1914 101.01 13.4205 100.522 14.5286C100.139 15.4084 99.641 16.1505 99.0297 16.7549C98.4249 17.3593 97.8038 17.8093 97.1665 18.1048C96.217 18.5413 95.0724 18.7596 93.7327 18.7596C91.5086 18.7596 89.7819 18.125 88.5528 16.8557C87.3302 15.5863 86.7188 13.8133 86.7188 11.5366ZM90.0941 10.9927C90.0941 13.4372 90.5233 15.2338 91.3817 16.3822C92.0191 17.2418 92.9328 17.6716 94.1229 17.6716C94.9423 17.6716 95.6317 17.4534 96.191 17.0168C96.7568 16.5803 97.1795 15.8818 97.4591 14.9215C97.7388 13.9544 97.8786 12.8328 97.8786 11.5568C97.8786 10.583 97.7941 9.64947 97.625 8.75626C97.4559 7.86304 97.225 7.16458 96.9324 6.66089C96.6397 6.1572 96.2463 5.75088 95.752 5.44195C95.2643 5.13302 94.6724 4.97855 93.9766 4.97855C93.2027 4.97855 92.5133 5.20353 91.9085 5.6535C91.3037 6.09675 90.8485 6.79857 90.5428 7.75894C90.2437 8.7126 90.0941 9.79051 90.0941 10.9927Z" fill="white"/>
<path d="M100.942 4.90803V4.16257C102.021 4.23644 103.02 4.27338 103.936 4.27338C104.561 4.27338 105.8 4.23644 107.653 4.16257V4.90803C107.042 5.04235 106.635 5.19682 106.434 5.37143C106.31 5.47217 106.248 5.59642 106.248 5.74417C106.248 5.83147 106.258 5.9255 106.278 6.02623C106.297 6.10011 106.561 6.93288 107.068 8.52456L108.785 13.8436C109.09 13.0847 109.825 11.127 110.989 7.97049C110.599 6.86237 110.333 6.18406 110.189 5.93557C110.053 5.68037 109.9 5.50239 109.731 5.40165C109.568 5.2942 109.133 5.12966 108.424 4.90803V4.16257C110.011 4.23644 111.149 4.27338 111.838 4.27338C112.514 4.27338 113.62 4.23644 115.155 4.16257V4.90803L114.921 4.96848C114.264 5.12294 113.877 5.25055 113.76 5.35129C113.649 5.44531 113.594 5.56619 113.594 5.71394C113.594 5.78782 113.604 5.87513 113.623 5.97587L114.765 9.64276C115.207 11.0665 115.652 12.4299 116.101 13.7327C117.753 8.78312 118.579 6.10347 118.579 5.6938C118.579 5.55948 118.517 5.44195 118.393 5.34121C118.27 5.24047 117.818 5.09608 117.038 4.90803V4.16257C118.02 4.23644 118.8 4.27338 119.379 4.27338C119.782 4.27338 120.637 4.23644 121.944 4.16257V4.90803C121.222 5.04907 120.748 5.21361 120.52 5.40165C120.299 5.5897 120.088 5.98594 119.886 6.59037C119.749 7.02019 119.47 7.80259 119.047 8.93758C118.195 11.2411 117.064 14.5152 115.652 18.7596H114.745C114.114 16.6374 113.077 13.6454 111.633 9.78379C110.313 13.2425 109.214 16.2344 108.336 18.7596H107.429L104.922 11.446C103.816 8.32979 103.143 6.52657 102.902 6.03631C102.779 5.77439 102.642 5.58634 102.493 5.47217C102.285 5.30427 101.768 5.11623 100.942 4.90803Z" fill="white"/>
<path d="M122.12 4.90803V4.16257C123.011 4.23644 123.84 4.27338 124.607 4.27338C125.381 4.27338 126.292 4.23644 127.339 4.16257C128.132 5.26398 130.519 8.30965 134.499 13.2996L134.46 7.81938C134.427 6.48292 134.375 5.74081 134.304 5.59306C134.239 5.43859 134.128 5.32106 133.972 5.24047C133.816 5.15317 133.267 5.04235 132.324 4.90803V4.16257C133.371 4.23644 134.284 4.27338 135.065 4.27338C135.819 4.27338 136.782 4.23644 137.952 4.16257V4.90803C137.751 4.94833 137.601 4.97519 137.504 4.98863C136.736 5.10951 136.278 5.24383 136.128 5.39158C135.979 5.53261 135.891 5.82812 135.865 6.27808C135.8 7.21831 135.767 9.15249 135.767 12.0806C135.767 13.9611 135.803 16.1102 135.874 18.5279C135.569 18.6219 135.266 18.7327 134.967 18.8604L131.27 14.045L125.632 6.96311L125.661 11.7482L125.739 16.4023C125.759 16.7516 125.791 16.9732 125.837 17.0672C125.882 17.1545 125.947 17.225 126.032 17.2788C126.175 17.3661 126.636 17.4836 127.417 17.6313C127.508 17.6448 127.644 17.6716 127.827 17.7119V18.4574C126.708 18.3835 125.811 18.3466 125.134 18.3466C124.555 18.3466 123.573 18.3835 122.188 18.4574V17.7119C122.39 17.6716 122.543 17.6414 122.647 17.6213C123.395 17.5004 123.84 17.3829 123.983 17.2687C124.074 17.1948 124.139 17.0907 124.178 16.9564C124.217 16.8154 124.259 15.8147 124.305 13.9544C124.377 11.2613 124.412 8.95102 124.412 7.02355C124.412 6.37882 124.377 5.96579 124.305 5.78446C124.24 5.60313 124.12 5.4621 123.944 5.36136C123.768 5.26062 123.323 5.14309 122.608 5.00877C122.497 4.98863 122.334 4.95505 122.12 4.90803Z" fill="white"/>
<path d="M151.648 15.6871L152.146 16.6542C151.021 17.4198 149.98 17.9638 149.024 18.2861C148.075 18.6018 147.08 18.7596 146.039 18.7596C143.841 18.7596 142.111 18.1149 140.85 16.8254C139.594 15.5293 138.967 13.7865 138.967 11.5971C138.967 9.27338 139.676 7.403 141.093 5.98594C142.511 4.56888 144.472 3.86035 146.976 3.86035C147.776 3.86035 148.546 3.92751 149.288 4.06183C150.036 4.18943 150.959 4.4312 152.058 4.78715C152.019 5.22368 152 5.67701 152 6.14712C152 6.95975 152.048 7.9537 152.146 9.12899H151.073C150.748 7.83953 150.533 7.08399 150.429 6.86237C150.188 6.35867 149.792 5.93221 149.239 5.58298C148.693 5.23376 147.951 5.05914 147.015 5.05914C145.591 5.05914 144.491 5.50911 143.718 6.40904C142.781 7.4903 142.313 8.9846 142.313 10.8919C142.313 12.8664 142.778 14.3708 143.708 15.405C144.644 16.4325 145.903 16.9463 147.483 16.9463C148.888 16.9463 150.276 16.5266 151.648 15.6871Z" fill="white"/>
<path d="M161.959 18.4574V17.7119C162.746 17.5642 163.202 17.4433 163.325 17.3493C163.449 17.2552 163.511 17.1276 163.511 16.9665C163.511 16.8724 163.491 16.765 163.452 16.6441C163.348 16.362 163.01 15.5158 162.437 14.1055C161.52 14.0853 160.756 14.0753 160.145 14.0753C159.644 14.0753 158.809 14.0853 157.638 14.1055C156.916 15.8651 156.555 16.8288 156.555 16.9967C156.555 17.1579 156.607 17.2788 156.711 17.3593C156.815 17.4332 157.277 17.5507 158.096 17.7119V18.4574C157.277 18.3835 156.493 18.3466 155.746 18.3466C154.939 18.3466 154.12 18.3835 153.287 18.4574V17.7119C153.873 17.5843 154.276 17.4399 154.497 17.2788C154.646 17.1713 154.783 17.0101 154.907 16.7952C155.16 16.3721 155.918 14.7334 157.179 11.8792C157.979 10.0726 159.121 7.39964 160.604 3.86035H161.394C161.998 5.43859 163.25 8.38352 165.149 12.6951C166.203 15.0927 166.834 16.4561 167.042 16.7851C167.185 17.0135 167.328 17.1747 167.471 17.2687C167.614 17.3627 168.066 17.5105 168.827 17.7119V18.4574C167.676 18.3835 166.606 18.3466 165.618 18.3466C164.642 18.3466 163.423 18.3835 161.959 18.4574ZM160.086 8.20219L158.096 12.947L160.028 12.9571C160.49 12.9571 161.153 12.9537 162.018 12.947L160.086 8.20219Z" fill="white"/>
<path d="M178.621 8.25256H177.646C177.431 6.96311 177.106 6.10011 176.67 5.66358C176.234 5.22032 175.643 4.9987 174.895 4.9987C174.225 4.9987 173.701 5.18003 173.324 5.54269C172.953 5.89863 172.768 6.35531 172.768 6.91274C172.768 7.40971 172.94 7.85968 173.285 8.26264C173.63 8.67231 174.449 9.17936 175.743 9.78379C177.038 10.3882 177.941 11.0262 178.455 11.6978C178.969 12.3761 179.226 13.2156 179.226 14.2163C179.226 15.4252 178.784 16.4863 177.899 17.3996C177.021 18.3063 175.6 18.7596 173.636 18.7596C172.934 18.7596 172.271 18.7059 171.646 18.5984C171.171 18.5246 170.583 18.3701 169.881 18.135C169.991 16.953 170.046 15.7878 170.046 14.6394V13.9644H171.002C171.25 15.3009 171.555 16.1941 171.919 16.6441C172.407 17.2552 173.083 17.5608 173.948 17.5608C174.638 17.5608 175.191 17.3493 175.607 16.9262C176.023 16.5031 176.231 15.9624 176.231 15.3043C176.231 14.8879 176.143 14.5185 175.968 14.1961C175.799 13.8738 175.542 13.5816 175.197 13.3197C174.859 13.0578 174.241 12.7119 173.344 12.2821C171.965 11.6105 171.041 10.9624 170.573 10.3379C170.105 9.71999 169.871 8.99131 169.871 8.15182C169.871 6.91609 170.313 5.89192 171.197 5.07929C172.082 4.26666 173.357 3.86035 175.021 3.86035C176.127 3.86035 177.327 4.07862 178.621 4.51515C178.582 5.56955 178.563 6.30159 178.563 6.71126C178.563 7.18809 178.582 7.70186 178.621 8.25256Z" fill="white"/>
<path d="M193 8.40367H192.093C191.644 6.98661 191.368 6.18406 191.264 5.99601C191.166 5.80797 191.026 5.67701 190.844 5.60313C190.662 5.52254 190.083 5.48225 189.108 5.48225H188.161V14.8912C188.161 16.0598 188.201 16.765 188.279 17.0068C188.318 17.1344 188.412 17.2385 188.561 17.319C188.718 17.3929 189.309 17.5239 190.337 17.7119V18.4574C188.353 18.3835 187.079 18.3466 186.513 18.3466C185.745 18.3466 184.572 18.3835 182.991 18.4574V17.7119C184.032 17.5239 184.65 17.3761 184.845 17.2687C184.975 17.1948 185.063 17.0739 185.108 16.906C185.16 16.7314 185.186 16.0262 185.186 14.7905V5.48225H183.547C182.995 5.48225 182.627 5.52926 182.445 5.62328C182.269 5.7173 182.123 5.88856 182.006 6.13705C181.83 6.51314 181.583 7.26868 181.265 8.40367H180.377C180.488 7.41643 180.556 6.73476 180.582 6.35867C180.608 5.98258 180.637 5.25055 180.67 4.16257C183.245 4.23644 185.762 4.26666 188.22 4.25323C190.301 4.23308 191.797 4.20286 192.707 4.16257C192.714 5.45874 192.811 6.87244 193 8.40367Z" fill="white"/>
</svg>
