<svg width="49" height="21" viewBox="0 0 49 21" fill="none" xmlns="http://www.w3.org/2000/svg">
<path d="M16.1491 18.0152C22.4414 17.0441 31.7889 16.7712 41.9241 20.4677L48.5 3.52844C48.5 3.52844 46.436 4.95893 45.4309 6.71621C45.4309 6.71621 43.4625 5.43062 42.9384 6.63759C42.4143 7.84457 42.7842 9.78683 44.2764 11.1248C44.2764 11.1248 41.403 15.4934 37.7821 14.4698C34.1612 13.4463 34.6329 8.21298 34.9088 6.59906C34.9088 6.59906 33.2563 11.5179 28.6643 11.7291C26.0438 11.7553 25.1744 8.94672 25.1744 8.94672C25.1744 8.94672 28.4547 7.29426 28.2466 4.98513C27.9583 3.52844 25.8326 4.43482 25.8326 4.43482C25.8326 4.43482 25.1374 0.997334 24.5008 0C23.8626 0.997334 23.1689 4.43482 23.1689 4.43482C23.1689 4.43482 21.0448 3.52844 20.755 4.98513C20.5392 7.29426 23.8256 8.94056 23.8256 8.94056C23.8256 8.94056 22.9593 11.7491 20.3357 11.7229C15.7436 11.5179 14.0912 6.59906 14.0912 6.59906C14.3733 8.21298 14.8357 13.4463 11.2179 14.4698C7.60003 15.4934 4.72364 11.1248 4.72364 11.1248C6.22041 9.78683 6.58729 7.84457 6.06318 6.63759C5.53908 5.43062 3.56908 6.71621 3.56908 6.71621C2.57328 4.95893 0.5 3.52844 0.5 3.52844L6.99269 20.2534C9.97247 19.2376 13.0367 18.4885 16.1491 18.0152Z" fill="white"/>
</svg>
