<svg width="250" height="30" viewBox="0 0 250 30" fill="none" xmlns="http://www.w3.org/2000/svg">
<path d="M20.4885 24.7491C16.5258 25.3532 12.6242 26.3067 8.82959 27.5985L9.65224 29.715C9.65224 29.715 20.0352 26.0131 31.0891 26.3006C42.143 26.0131 52.524 29.715 52.524 29.715L53.2428 27.868C40.3659 23.1757 28.4874 23.5211 20.4885 24.7491Z" fill="#6941C6"/>
<path d="M20.2708 23.6204C28.4214 22.3625 40.5296 22.0091 53.6581 26.7972L62.1762 4.85518C62.1762 4.85518 59.5025 6.70815 58.2007 8.98442C58.2007 8.98442 55.6509 7.31915 54.972 8.88259C54.2931 10.446 54.7723 12.9619 56.7051 14.6951C56.7051 14.6951 52.9832 20.3538 48.2929 19.028C43.6026 17.7021 44.2136 10.9232 44.571 8.83267C44.571 8.83267 42.4305 15.2042 36.4823 15.4778C33.0878 15.5117 31.9617 11.8737 31.9617 11.8737C31.9617 11.8737 36.2107 9.73319 35.9411 6.74209C35.5677 4.85518 32.8143 6.02926 32.8143 6.02926C32.8143 6.02926 31.9137 1.57655 31.0891 0.284668C30.2624 1.57655 29.3639 6.02926 29.3639 6.02926C29.3639 6.02926 26.6124 4.85518 26.237 6.74209C25.9575 9.73319 30.2145 11.8657 30.2145 11.8657C30.2145 11.8657 29.0924 15.5037 25.6939 15.4698C19.7457 15.2042 17.6052 8.83267 17.6052 8.83267C17.9706 10.9232 18.5696 17.7021 13.8833 19.028C9.19694 20.3538 5.47104 14.6951 5.47104 14.6951C7.40986 12.9619 7.88509 10.446 7.2062 8.88259C6.52731 7.31915 3.97549 8.98442 3.97549 8.98442C2.6856 6.70815 0 4.85518 0 4.85518L8.41022 26.5197C12.27 25.2038 16.2392 24.2336 20.2708 23.6204Z" fill="#6941C6"/>
<path d="M91.5563 20.6048L92.2007 21.8575C90.7434 22.8492 89.3955 23.5538 88.1572 23.9714C86.9273 24.3803 85.6384 24.5847 84.2905 24.5847C81.4432 24.5847 79.2024 23.7496 77.5682 22.0793C75.9423 20.4003 75.1294 18.1428 75.1294 15.3068C75.1294 12.2969 76.0476 9.87408 77.8841 8.03851C79.7205 6.20294 82.2603 5.28516 85.5036 5.28516C86.5398 5.28516 87.538 5.37215 88.4984 5.54614C89.4671 5.71143 90.6633 6.0246 92.087 6.48567C92.0364 7.05113 92.0112 7.63834 92.0112 8.24729C92.0112 9.29992 92.0744 10.5874 92.2007 12.1098H90.8107C90.3895 10.4395 90.1116 9.46086 89.9768 9.17378C89.6651 8.52132 89.1512 7.96891 88.4352 7.51655C87.7276 7.06418 86.7672 6.83799 85.5541 6.83799C83.7093 6.83799 82.2856 7.42085 81.2832 8.58657C80.0701 9.98717 79.4636 11.9228 79.4636 14.3934C79.4636 16.951 80.0659 18.8997 81.2705 20.2394C82.4836 21.5704 84.1136 22.2359 86.1607 22.2359C87.9803 22.2359 89.7788 21.6922 91.5563 20.6048Z" fill="#6941C6"/>
<path d="M93.7929 6.64226V5.67663C96.6402 5.77232 98.3208 5.82017 98.8347 5.82017C99.3822 5.82017 100.174 5.80712 101.21 5.78102C102.246 5.74622 103.009 5.72882 103.497 5.72882C104.753 5.72882 105.73 5.89411 106.429 6.22469C107.128 6.55526 107.688 7.08158 108.11 7.80362C108.539 8.52567 108.754 9.33037 108.754 10.2177C108.754 10.9745 108.602 11.7053 108.299 12.4099C107.996 13.1059 107.591 13.6975 107.086 14.1846C106.757 14.5065 106.231 14.8545 105.506 15.2285C106.079 16.2464 106.918 17.6861 108.021 19.5478C108.83 20.9136 109.356 21.7313 109.601 22.001C109.853 22.2707 110.123 22.4795 110.409 22.6274C110.847 22.8361 111.648 23.0362 112.81 23.2276V24.1932C111.378 24.0976 110.211 24.0497 109.31 24.0497C108.358 24.0497 107.187 24.0976 105.797 24.1932C104.769 21.7487 103.451 18.9519 101.842 15.8027C101.362 15.7853 100.861 15.7505 100.338 15.6983L100.376 21.1267C100.393 21.7966 100.448 22.2141 100.541 22.3794C100.633 22.536 100.764 22.6491 100.932 22.7187C101.05 22.7796 101.804 22.9492 103.194 23.2276V24.1932C101.231 24.0976 99.656 24.0497 98.4682 24.0497C97.2973 24.0497 95.7388 24.0976 93.7929 24.1932V23.2276C95.2249 22.9579 96.0294 22.7491 96.2063 22.6013C96.3917 22.4534 96.5096 22.1619 96.5602 21.727C96.5854 21.4921 96.6023 19.2607 96.6107 15.0328L96.5981 11.1442C96.5981 9.31732 96.5644 8.21685 96.497 7.84277C96.4464 7.57309 96.3285 7.37301 96.1432 7.24252C95.9663 7.10333 95.3724 6.94239 94.3615 6.7597L93.7929 6.64226ZM100.351 14.2238C100.772 14.2412 101.084 14.2499 101.286 14.2499C102.465 14.2499 103.333 13.9628 103.889 13.3886C104.453 12.8058 104.736 11.9228 104.736 10.7397C104.736 9.62614 104.47 8.77796 103.94 8.1951C103.409 7.60354 102.689 7.30776 101.779 7.30776C101.408 7.30776 100.928 7.33821 100.338 7.3991L100.351 14.2238Z" fill="#6941C6"/>
<path d="M112.33 15.2285C112.33 12.2447 113.214 9.84363 114.984 8.02546C116.761 6.19859 119.141 5.28516 122.123 5.28516C124.937 5.28516 127.144 6.10725 128.744 7.75143C130.353 9.38691 131.158 11.5792 131.158 14.3282C131.158 16.0767 130.842 17.6687 130.21 19.1041C129.713 20.2437 129.069 21.205 128.277 21.988C127.493 22.7709 126.689 23.3538 125.863 23.7365C124.633 24.302 123.151 24.5847 121.415 24.5847C118.534 24.5847 116.298 23.7626 114.706 22.1184C113.122 20.4743 112.33 18.1776 112.33 15.2285ZM116.702 14.5239C116.702 17.6905 117.258 20.0175 118.37 21.5051C119.196 22.6187 120.379 23.1754 121.921 23.1754C122.982 23.1754 123.875 22.8927 124.6 22.3272C125.332 21.7618 125.88 20.857 126.242 19.613C126.605 18.3603 126.786 16.9075 126.786 15.2546C126.786 13.9932 126.676 12.784 126.457 11.627C126.238 10.47 125.939 9.56525 125.56 8.9128C125.181 8.26034 124.671 7.73403 124.031 7.33386C123.399 6.93369 122.633 6.7336 121.731 6.7336C120.729 6.7336 119.836 7.02503 119.052 7.60789C118.269 8.18205 117.679 9.09113 117.283 10.3351C116.896 11.5705 116.702 12.9667 116.702 14.5239Z" fill="#6941C6"/>
<path d="M130.753 6.64226V5.67663C132.152 5.77232 133.445 5.82017 134.633 5.82017C135.441 5.82017 137.046 5.77232 139.447 5.67663V6.64226C138.655 6.81625 138.129 7.01633 137.867 7.24252C137.707 7.37301 137.627 7.53394 137.627 7.72533C137.627 7.83842 137.64 7.96021 137.665 8.0907C137.691 8.1864 138.032 9.26512 138.689 11.3269L140.913 18.2168C141.309 17.2337 142.261 14.6979 143.768 10.6092C143.263 9.17378 142.918 8.29514 142.732 7.97326C142.555 7.64269 142.357 7.41215 142.138 7.28166C141.928 7.14247 141.363 6.92934 140.445 6.64226V5.67663C142.501 5.77232 143.975 5.82017 144.868 5.82017C145.744 5.82017 147.176 5.77232 149.164 5.67663V6.64226L148.861 6.72055C148.01 6.92064 147.509 7.08593 147.357 7.21642C147.214 7.33821 147.142 7.4948 147.142 7.68618C147.142 7.78188 147.155 7.89497 147.18 8.02546L148.659 12.7753C149.231 14.6196 149.809 16.3856 150.39 18.0732C152.53 11.6618 153.599 8.19075 153.599 7.66009C153.599 7.4861 153.519 7.33386 153.359 7.20337C153.199 7.07288 152.614 6.88584 151.603 6.64226V5.67663C152.875 5.77232 153.886 5.82017 154.636 5.82017C155.158 5.82017 156.266 5.77232 157.959 5.67663V6.64226C157.024 6.82495 156.409 7.03808 156.114 7.28166C155.828 7.52524 155.554 8.03851 155.293 8.82145C155.116 9.37821 154.753 10.3917 154.206 11.8619C153.102 14.8458 151.637 19.0867 149.809 24.5847H148.633C147.816 21.8357 146.473 17.9601 144.602 12.958C142.892 17.4382 141.469 21.3138 140.331 24.5847H139.156L135.909 15.1111C134.477 11.0746 133.605 8.73881 133.293 8.10375C133.133 7.76448 132.956 7.5209 132.762 7.37301C132.493 7.15552 131.823 6.91194 130.753 6.64226Z" fill="#6941C6"/>
<path d="M158.186 6.64226V5.67663C159.34 5.77232 160.414 5.82017 161.408 5.82017C162.411 5.82017 163.59 5.77232 164.947 5.67663C165.974 7.10333 169.066 11.0485 174.221 17.5121L174.171 10.4134C174.129 8.68226 174.061 7.72098 173.969 7.52959C173.884 7.32951 173.741 7.17727 173.539 7.07288C173.337 6.95979 172.625 6.81625 171.404 6.64226V5.67663C172.76 5.77232 173.943 5.82017 174.954 5.82017C175.931 5.82017 177.178 5.77232 178.695 5.67663V6.64226C178.433 6.69445 178.24 6.72925 178.113 6.74665C177.119 6.90324 176.525 7.07723 176.332 7.26861C176.138 7.4513 176.024 7.83407 175.99 8.41693C175.906 9.63484 175.864 12.1403 175.864 15.9332C175.864 18.369 175.91 21.1528 176.003 24.2846C175.607 24.4064 175.215 24.5499 174.828 24.7152L170.039 18.4778L162.735 9.30427L162.773 15.5026L162.874 21.5312C162.899 21.9836 162.942 22.2707 163.001 22.3925C163.06 22.5056 163.144 22.5969 163.253 22.6665C163.439 22.7796 164.037 22.9318 165.048 23.1232C165.166 23.1406 165.342 23.1754 165.578 23.2276V24.1932C164.129 24.0976 162.967 24.0497 162.091 24.0497C161.341 24.0497 160.069 24.0976 158.275 24.1932V23.2276C158.536 23.1754 158.734 23.1363 158.869 23.1102C159.837 22.9536 160.414 22.8013 160.6 22.6535C160.718 22.5578 160.802 22.4229 160.852 22.2489C160.903 22.0662 160.958 20.77 161.017 18.3603C161.109 14.8719 161.156 11.8793 161.156 9.38256C161.156 8.54742 161.109 8.01241 161.017 7.77753C160.932 7.54264 160.777 7.35996 160.549 7.22947C160.322 7.09898 159.745 6.94674 158.818 6.77275C158.675 6.74665 158.464 6.70315 158.186 6.64226Z" fill="#6941C6"/>
<path d="M196.436 20.6048L197.08 21.8575C195.623 22.8492 194.275 23.5538 193.037 23.9714C191.807 24.3803 190.518 24.5847 189.17 24.5847C186.323 24.5847 184.082 23.7496 182.447 22.0793C180.822 20.4003 180.009 18.1428 180.009 15.3068C180.009 12.2969 180.927 9.87408 182.763 8.03851C184.6 6.20294 187.14 5.28516 190.383 5.28516C191.419 5.28516 192.417 5.37215 193.378 5.54614C194.346 5.71143 195.543 6.0246 196.966 6.48567C196.916 7.05113 196.891 7.63834 196.891 8.24729C196.891 9.29992 196.954 10.5874 197.08 12.1098H195.69C195.269 10.4395 194.991 9.46086 194.856 9.17378C194.544 8.52132 194.031 7.96891 193.314 7.51655C192.607 7.06418 191.647 6.83799 190.433 6.83799C188.589 6.83799 187.165 7.42085 186.162 8.58657C184.949 9.98717 184.343 11.9228 184.343 14.3934C184.343 16.951 184.945 18.8997 186.15 20.2394C187.363 21.5704 188.993 22.2359 191.04 22.2359C192.86 22.2359 194.658 21.6922 196.436 20.6048Z" fill="#6941C6"/>
<path d="M209.792 24.1932V23.2276C210.811 23.0362 211.401 22.8796 211.561 22.7578C211.721 22.6361 211.801 22.4708 211.801 22.262C211.801 22.1402 211.776 22.001 211.725 21.8444C211.59 21.479 211.152 20.3829 210.411 18.5561C209.223 18.53 208.233 18.5169 207.442 18.5169C206.793 18.5169 205.71 18.53 204.194 18.5561C203.259 20.8353 202.792 22.0836 202.792 22.3011C202.792 22.5099 202.859 22.6665 202.994 22.7709C203.129 22.8666 203.727 23.0188 204.788 23.2276V24.1932C203.727 24.0976 202.712 24.0497 201.743 24.0497C200.698 24.0497 199.637 24.0976 198.558 24.1932V23.2276C199.317 23.0623 199.839 22.8753 200.125 22.6665C200.319 22.5273 200.496 22.3185 200.656 22.0402C200.985 21.4921 201.966 19.3694 203.6 15.6722C204.636 13.3321 206.115 9.86973 208.036 5.28516H209.059C209.842 7.32951 211.464 11.1442 213.924 16.7292C215.289 19.8349 216.106 21.6008 216.375 22.0271C216.561 22.3229 216.746 22.5317 216.931 22.6535C217.117 22.7752 217.702 22.9666 218.688 23.2276V24.1932C217.197 24.0976 215.811 24.0497 214.53 24.0497C213.267 24.0497 211.687 24.0976 209.792 24.1932ZM207.366 10.9093L204.788 17.0554L207.29 17.0685C207.888 17.0685 208.747 17.0641 209.868 17.0554L207.366 10.9093Z" fill="#6941C6"/>
<path d="M231.374 10.9745H230.111C229.833 9.30427 229.412 8.1864 228.847 7.62094C228.283 7.04678 227.516 6.7597 226.547 6.7597C225.68 6.7597 225.002 6.99458 224.513 7.46435C224.033 7.92542 223.793 8.51697 223.793 9.23902C223.793 9.88278 224.016 10.4656 224.462 10.9876C224.909 11.5183 225.97 12.1751 227.647 12.958C229.323 13.7409 230.494 14.5674 231.16 15.4373C231.825 16.316 232.158 17.4034 232.158 18.6996C232.158 20.2655 231.585 21.64 230.439 22.8231C229.302 23.9975 227.461 24.5847 224.917 24.5847C224.008 24.5847 223.148 24.5151 222.34 24.3759C221.725 24.2802 220.962 24.0802 220.052 23.7757C220.196 22.2446 220.267 20.7352 220.267 19.2477V18.3734H221.506C221.826 20.1045 222.222 21.2616 222.693 21.8444C223.325 22.6361 224.201 23.0319 225.322 23.0319C226.215 23.0319 226.931 22.7578 227.47 22.2098C228.009 21.6617 228.278 20.9614 228.278 20.1089C228.278 19.5695 228.165 19.0911 227.937 18.6735C227.718 18.2559 227.386 17.8775 226.939 17.5382C226.501 17.1989 225.701 16.7509 224.538 16.1942C222.752 15.3242 221.556 14.4847 220.95 13.6757C220.343 12.8754 220.04 11.9315 220.04 10.8441C220.04 9.24337 220.613 7.91672 221.758 6.86409C222.904 5.81147 224.555 5.28516 226.712 5.28516C228.144 5.28516 229.698 5.56789 231.374 6.13335C231.324 7.49915 231.298 8.44738 231.298 8.97804C231.298 9.5957 231.324 10.2612 231.374 10.9745Z" fill="#6941C6"/>
<path d="M250 11.1703H248.825C248.243 9.33471 247.885 8.29514 247.751 8.05156C247.624 7.80797 247.443 7.63834 247.207 7.54264C246.971 7.43825 246.222 7.38606 244.958 7.38606H243.732V19.5739C243.732 21.0876 243.783 22.001 243.884 22.3142C243.935 22.4795 244.057 22.6143 244.25 22.7187C244.453 22.8144 245.219 22.984 246.55 23.2276V24.1932C243.981 24.0976 242.33 24.0497 241.597 24.0497C240.603 24.0497 239.082 24.0976 237.035 24.1932V23.2276C238.383 22.984 239.183 22.7926 239.436 22.6535C239.605 22.5578 239.718 22.4012 239.777 22.1837C239.845 21.9575 239.878 21.0441 239.878 19.4434V7.38606H237.756C237.039 7.38606 236.564 7.44695 236.328 7.56874C236.1 7.69053 235.911 7.91237 235.759 8.23424C235.532 8.72141 235.211 9.70009 234.799 11.1703H233.649C233.792 9.89147 233.88 9.00849 233.914 8.52132C233.948 8.03416 233.986 7.08593 234.028 5.67663C237.364 5.77232 240.624 5.81147 243.808 5.79407C246.504 5.76797 248.441 5.72882 249.621 5.67663C249.629 7.35561 249.756 9.18683 250 11.1703Z" fill="#6941C6"/>
</svg>
