<svg width="161" height="48" viewBox="0 0 161 48" fill="none" xmlns="http://www.w3.org/2000/svg">
<path d="M22.25 2C10.0997 2 0.25 11.8497 0.25 24C0.25 36.1503 10.0997 46 22.25 46C33.151 46 42.2002 38.0716 43.9458 27.6667H43.7879C42.1598 33.9925 36.4174 38.6667 29.5833 38.6667C21.4832 38.6667 14.9167 32.1002 14.9167 24C14.9167 15.8998 21.4832 9.33333 29.5833 9.33333C36.4174 9.33333 42.1598 14.0075 43.7879 20.3333H43.9458C42.2002 9.92838 33.151 2 22.25 2Z" fill="#A4BCFD"/>
<path d="M0.25 24C0.25 11.8497 10.0997 2 22.25 2C33.151 2 42.2002 9.92838 43.9458 20.3333H29.1213C27.4931 14.0075 21.7507 9.33333 14.9167 9.33333C6.81649 9.33333 0.25 15.8998 0.25 24Z" fill="#3538CD"/>
<path d="M0.25 24C0.25 36.1503 10.0997 46 22.25 46C33.151 46 42.2002 38.0716 43.9458 27.6667H29.1213C27.4931 33.9925 21.7507 38.6667 14.9167 38.6667C6.81649 38.6667 0.25 32.1002 0.25 24Z" fill="#3538CD"/>
<path d="M75.6886 20.5071C75.0622 15.9829 71.5821 13.3579 67.0679 13.3579C61.7483 13.3579 57.7412 17.2358 57.7412 23.8181C57.7412 30.3906 61.6986 34.2784 67.0679 34.2784C71.9102 34.2784 75.1219 31.1463 75.6886 27.2585L71.9699 27.2386C71.5026 29.625 69.5537 30.9673 67.1176 30.9673C63.8165 30.9673 61.45 28.4914 61.45 23.8181C61.45 19.2244 63.7966 16.669 67.1276 16.669C69.6034 16.669 71.5423 18.071 71.9699 20.5071H75.6886Z" fill="#101828"/>
<path d="M83.3026 34.3082C85.6989 34.3082 87.1308 33.1846 87.787 31.9019H87.9063V34H91.3666V23.7784C91.3666 19.7414 88.0754 18.5284 85.162 18.5284C81.9504 18.5284 79.4845 19.9602 78.689 22.7443L82.0498 23.2215C82.4078 22.1775 83.422 21.2826 85.1819 21.2826C86.8524 21.2826 87.7671 22.1377 87.7671 23.6392V23.6988C87.7671 24.7329 86.6833 24.7826 83.9887 25.071C81.0257 25.3892 78.1918 26.2741 78.1918 29.7144C78.1918 32.7173 80.3893 34.3082 83.3026 34.3082ZM84.2373 31.6633C82.7359 31.6633 81.662 30.9772 81.662 29.6548C81.662 28.2727 82.8651 27.696 84.4759 27.4673C85.4205 27.338 87.3097 27.0994 87.7771 26.7215V28.5213C87.7771 30.2215 86.4049 31.6633 84.2373 31.6633Z" fill="#101828"/>
<path d="M102.612 18.7272H99.5995V15.0681H96.0001V18.7272H93.8325V21.5113H96.0001V30.0028C95.9802 32.8764 98.0683 34.2883 100.773 34.2088C101.797 34.1789 102.503 33.9801 102.891 33.8508L102.284 31.0369C102.085 31.0866 101.678 31.1761 101.23 31.1761C100.325 31.1761 99.5995 30.8579 99.5995 29.4062V21.5113H102.612V18.7272Z" fill="#101828"/>
<path d="M110.017 34.3082C112.414 34.3082 113.846 33.1846 114.502 31.9019H114.621V34H118.081V23.7784C118.081 19.7414 114.79 18.5284 111.877 18.5284C108.665 18.5284 106.199 19.9602 105.404 22.7443L108.765 23.2215C109.123 22.1775 110.137 21.2826 111.897 21.2826C113.567 21.2826 114.482 22.1377 114.482 23.6392V23.6988C114.482 24.7329 113.398 24.7826 110.704 25.071C107.74 25.3892 104.907 26.2741 104.907 29.7144C104.907 32.7173 107.104 34.3082 110.017 34.3082ZM110.952 31.6633C109.451 31.6633 108.377 30.9772 108.377 29.6548C108.377 28.2727 109.58 27.696 111.191 27.4673C112.135 27.338 114.025 27.0994 114.492 26.7215V28.5213C114.492 30.2215 113.12 31.6633 110.952 31.6633Z" fill="#101828"/>
<path d="M125.3 13.6363H121.701V34H125.3V13.6363Z" fill="#101828"/>
<path d="M135.663 34.2983C140.138 34.2983 142.982 31.1463 142.982 26.4233C142.982 21.6903 140.138 18.5284 135.663 18.5284C131.189 18.5284 128.345 21.6903 128.345 26.4233C128.345 31.1463 131.189 34.2983 135.663 34.2983ZM135.683 31.4147C133.207 31.4147 131.994 29.2073 131.994 26.4133C131.994 23.6193 133.207 21.3821 135.683 21.3821C138.119 21.3821 139.332 23.6193 139.332 26.4133C139.332 29.2073 138.119 31.4147 135.683 31.4147Z" fill="#101828"/>
<path d="M152.679 40.0454C156.805 40.0454 159.848 38.1562 159.848 34.2485V18.7272H156.298V21.2528H156.099C155.552 20.1491 154.409 18.5284 151.714 18.5284C148.184 18.5284 145.41 21.2926 145.41 26.3139C145.41 31.2954 148.184 33.7812 151.704 33.7812C154.319 33.7812 155.542 32.3792 156.099 31.2556H156.278V34.1491C156.278 36.3963 154.787 37.321 152.738 37.321C150.571 37.321 149.616 36.2968 149.179 35.4019L145.937 36.1875C146.593 38.3252 148.791 40.0454 152.679 40.0454ZM152.709 30.9573C150.332 30.9573 149.079 29.1079 149.079 26.294C149.079 23.5198 150.312 21.4815 152.709 21.4815C155.025 21.4815 156.298 23.4005 156.298 26.294C156.298 29.2073 155.005 30.9573 152.709 30.9573Z" fill="#101828"/>
</svg>
