<svg width="170" height="48" viewBox="0 0 170 48" fill="none" xmlns="http://www.w3.org/2000/svg">
<rect x="0.75" y="19.2002" width="9.59998" height="9.59999" fill="#039855"/>
<rect x="29.5498" y="28.7998" width="9.6" height="9.59999" transform="rotate(180 29.5498 28.7998)" fill="#027A48"/>
<path d="M10.3496 19.2001L19.9496 9.6001V19.2001L10.3496 28.8001V19.2001Z" fill="#A6F4C5"/>
<path d="M19.9502 28.7999L10.3502 38.3999L10.3502 28.7999L19.9502 19.1999L19.9502 28.7999Z" fill="#6CE9A6"/>
<path d="M0.75 19.2L19.95 0V9.59999L10.35 19.2H0.75Z" fill="#32D583"/>
<path d="M29.5498 28.8L10.3498 48L10.3498 38.4L19.9498 28.8L29.5498 28.8Z" fill="#12B76A"/>
<path d="M50.4585 34.2798C48.9465 34.2798 47.4811 34.0651 46.0625 33.6358C44.6625 33.2065 43.5518 32.6371 42.7305 31.9278L43.9905 29.0998C44.7931 29.7345 45.7731 30.2571 46.9305 30.6678C48.1065 31.0598 49.2825 31.2558 50.4585 31.2558C51.9145 31.2558 52.9971 31.0225 53.7065 30.5558C54.4345 30.0891 54.7985 29.4731 54.7985 28.7078C54.7985 28.1478 54.5931 27.6905 54.1825 27.3358C53.7905 26.9625 53.2865 26.6731 52.6705 26.4678C52.0545 26.2625 51.2145 26.0291 50.1505 25.7678C48.6571 25.4131 47.4438 25.0585 46.5105 24.7038C45.5958 24.3491 44.8025 23.7985 44.1305 23.0518C43.4771 22.2865 43.1505 21.2598 43.1505 19.9718C43.1505 18.8891 43.4398 17.9091 44.0185 17.0318C44.6158 16.1358 45.5025 15.4265 46.6785 14.9038C47.8731 14.3811 49.3291 14.1198 51.0465 14.1198C52.2411 14.1198 53.4171 14.2691 54.5745 14.5678C55.7318 14.8665 56.7305 15.2958 57.5705 15.8558L56.4225 18.6838C55.5638 18.1798 54.6678 17.7971 53.7345 17.5358C52.8011 17.2745 51.8958 17.1438 51.0185 17.1438C49.5811 17.1438 48.5078 17.3865 47.7985 17.8718C47.1078 18.3571 46.7625 19.0011 46.7625 19.8038C46.7625 20.3638 46.9585 20.8211 47.3505 21.1758C47.7611 21.5305 48.2745 21.8105 48.8905 22.0158C49.5065 22.2211 50.3465 22.4545 51.4105 22.7158C52.8665 23.0518 54.0611 23.4065 54.9945 23.7798C55.9278 24.1345 56.7211 24.6851 57.3745 25.4318C58.0465 26.1785 58.3825 27.1865 58.3825 28.4558C58.3825 29.5385 58.0838 30.5185 57.4865 31.3958C56.9078 32.2731 56.0211 32.9731 54.8265 33.4958C53.6318 34.0185 52.1758 34.2798 50.4585 34.2798Z" fill="#101828"/>
<path d="M61.6558 19.0478H65.1558V33.9998H61.6558V19.0478ZM63.4198 16.5838C62.7852 16.5838 62.2532 16.3878 61.8238 15.9958C61.3945 15.5851 61.1798 15.0811 61.1798 14.4838C61.1798 13.8865 61.3945 13.3918 61.8238 12.9998C62.2532 12.5891 62.7852 12.3838 63.4198 12.3838C64.0545 12.3838 64.5865 12.5798 65.0158 12.9718C65.4452 13.3451 65.6598 13.8211 65.6598 14.3998C65.6598 15.0158 65.4452 15.5385 65.0158 15.9678C64.6052 16.3785 64.0732 16.5838 63.4198 16.5838Z" fill="#101828"/>
<path d="M74.3696 34.1958C73.1562 34.1958 71.9709 34.0371 70.8136 33.7198C69.6562 33.4025 68.7323 33.0011 68.0416 32.5158L69.3856 29.8558C70.0576 30.3038 70.8602 30.6678 71.7936 30.9478C72.7456 31.2091 73.6789 31.3398 74.5936 31.3398C76.6842 31.3398 77.7296 30.7891 77.7296 29.6878C77.7296 29.1651 77.4589 28.8011 76.9176 28.5958C76.3949 28.3905 75.5456 28.1945 74.3696 28.0078C73.1376 27.8211 72.1296 27.6065 71.3456 27.3638C70.5802 27.1211 69.9082 26.7011 69.3296 26.1038C68.7696 25.4878 68.4896 24.6385 68.4896 23.5558C68.4896 22.1371 69.0776 21.0078 70.2536 20.1678C71.4482 19.3091 73.0536 18.8798 75.0696 18.8798C76.0962 18.8798 77.1229 19.0011 78.1496 19.2438C79.1762 19.4678 80.0162 19.7758 80.6696 20.1678L79.3256 22.8278C78.0562 22.0811 76.6282 21.7078 75.0416 21.7078C74.0149 21.7078 73.2309 21.8665 72.6896 22.1838C72.1669 22.4825 71.9056 22.8838 71.9056 23.3878C71.9056 23.9478 72.1856 24.3491 72.7456 24.5918C73.3242 24.8158 74.2109 25.0305 75.4056 25.2358C76.6002 25.4225 77.5802 25.6371 78.3456 25.8798C79.1109 26.1225 79.7642 26.5331 80.3056 27.1118C80.8656 27.6905 81.1456 28.5118 81.1456 29.5758C81.1456 30.9758 80.5389 32.0958 79.3256 32.9358C78.1122 33.7758 76.4602 34.1958 74.3696 34.1958Z" fill="#101828"/>
<path d="M97.8863 19.0478L90.8863 35.2038C90.233 36.8278 89.4396 37.9665 88.5063 38.6198C87.573 39.2918 86.4436 39.6278 85.1183 39.6278C84.3716 39.6278 83.6343 39.5065 82.9063 39.2638C82.1783 39.0211 81.581 38.6851 81.1143 38.2558L82.5143 35.6798C82.8503 35.9971 83.2423 36.2491 83.6903 36.4358C84.157 36.6225 84.6236 36.7158 85.0903 36.7158C85.7063 36.7158 86.2103 36.5571 86.6023 36.2398C87.013 35.9225 87.3863 35.3905 87.7223 34.6438L87.9743 34.0558L81.4503 19.0478H85.0903L89.7943 30.1078L94.5263 19.0478H97.8863Z" fill="#101828"/>
<path d="M108.362 18.8798C109.818 18.8798 111.115 19.1971 112.254 19.8318C113.411 20.4665 114.316 21.3625 114.97 22.5198C115.623 23.6771 115.95 25.0118 115.95 26.5238C115.95 28.0358 115.623 29.3798 114.97 30.5558C114.316 31.7131 113.411 32.6091 112.254 33.2438C111.115 33.8785 109.818 34.1958 108.362 34.1958C106.346 34.1958 104.75 33.5238 103.574 32.1798V39.4318H100.074V19.0478H103.406V21.0078C103.984 20.2985 104.694 19.7665 105.534 19.4118C106.392 19.0571 107.335 18.8798 108.362 18.8798ZM107.97 31.1998C109.258 31.1998 110.312 30.7705 111.134 29.9118C111.974 29.0531 112.394 27.9238 112.394 26.5238C112.394 25.1238 111.974 23.9945 111.134 23.1358C110.312 22.2771 109.258 21.8478 107.97 21.8478C107.13 21.8478 106.374 22.0438 105.702 22.4358C105.03 22.8091 104.498 23.3505 104.106 24.0598C103.714 24.7691 103.518 25.5905 103.518 26.5238C103.518 27.4571 103.714 28.2785 104.106 28.9878C104.498 29.6971 105.03 30.2478 105.702 30.6398C106.374 31.0131 107.13 31.1998 107.97 31.1998Z" fill="#101828"/>
<path d="M127.753 18.8798C129.638 18.8798 131.15 19.4305 132.289 20.5318C133.428 21.6331 133.997 23.2665 133.997 25.4318V33.9998H130.497V25.8798C130.497 24.5731 130.189 23.5931 129.573 22.9398C128.957 22.2678 128.08 21.9318 126.941 21.9318C125.653 21.9318 124.636 22.3238 123.889 23.1078C123.142 23.8731 122.769 24.9838 122.769 26.4398V33.9998H119.269V13.2238H122.769V20.7838C123.348 20.1678 124.057 19.7011 124.897 19.3838C125.756 19.0478 126.708 18.8798 127.753 18.8798Z" fill="#101828"/>
<path d="M152.913 19.0478V33.9998H149.581V32.0958C149.021 32.7678 148.321 33.2905 147.481 33.6638C146.641 34.0185 145.736 34.1958 144.765 34.1958C142.768 34.1958 141.19 33.6451 140.033 32.5438C138.894 31.4238 138.325 29.7718 138.325 27.5878V19.0478H141.825V27.1118C141.825 28.4558 142.124 29.4638 142.721 30.1358C143.337 30.7891 144.205 31.1158 145.325 31.1158C146.576 31.1158 147.565 30.7331 148.293 29.9678C149.04 29.1838 149.413 28.0638 149.413 26.6078V19.0478H152.913Z" fill="#101828"/>
<path d="M162.116 34.1958C160.902 34.1958 159.717 34.0371 158.56 33.7198C157.402 33.4025 156.478 33.0011 155.788 32.5158L157.132 29.8558C157.804 30.3038 158.606 30.6678 159.54 30.9478C160.492 31.2091 161.425 31.3398 162.34 31.3398C164.43 31.3398 165.476 30.7891 165.476 29.6878C165.476 29.1651 165.205 28.8011 164.664 28.5958C164.141 28.3905 163.292 28.1945 162.116 28.0078C160.884 27.8211 159.876 27.6065 159.092 27.3638C158.326 27.1211 157.654 26.7011 157.076 26.1038C156.516 25.4878 156.236 24.6385 156.236 23.5558C156.236 22.1371 156.824 21.0078 158 20.1678C159.194 19.3091 160.8 18.8798 162.816 18.8798C163.842 18.8798 164.869 19.0011 165.896 19.2438C166.922 19.4678 167.762 19.7758 168.416 20.1678L167.072 22.8278C165.802 22.0811 164.374 21.7078 162.788 21.7078C161.761 21.7078 160.977 21.8665 160.436 22.1838C159.913 22.4825 159.652 22.8838 159.652 23.3878C159.652 23.9478 159.932 24.3491 160.492 24.5918C161.07 24.8158 161.957 25.0305 163.152 25.2358C164.346 25.4225 165.326 25.6371 166.092 25.8798C166.857 26.1225 167.51 26.5331 168.052 27.1118C168.612 27.6905 168.892 28.5118 168.892 29.5758C168.892 30.9758 168.285 32.0958 167.072 32.9358C165.858 33.7758 164.206 34.1958 162.116 34.1958Z" fill="#101828"/>
</svg>
