<svg width="146" height="48" viewBox="0 0 146 48" fill="none" xmlns="http://www.w3.org/2000/svg">
<path d="M13.2778 22.3183C14.1 19.25 17.2539 16.0961 20.3222 15.2739L39.4512 10.1475C42.5194 9.32522 44.3402 11.146 43.5179 14.2142L38.3916 33.3432C37.5693 36.4115 34.4154 39.5654 31.3471 40.3877L12.2181 45.514C9.14988 46.3363 7.32913 44.5155 8.15139 41.4473L13.2778 22.3183Z" fill="#9E77ED"/>
<path d="M5.60882 14.6493C6.43108 11.5811 9.58498 8.42717 12.6533 7.60491L31.7822 2.47854C34.8505 1.65628 36.6713 3.47702 35.849 6.54529L30.7226 25.6743C29.9004 28.7425 26.7465 31.8964 23.6782 32.7187L4.5492 37.8451C1.48093 38.6673 -0.339816 36.8466 0.482448 33.7783L5.60882 14.6493Z" fill="#6941C6"/>
<path d="M61.2921 31.424H67.8721V34H58.1001V14.54H61.2921V31.424Z" fill="#101828"/>
<path d="M69.4775 26.216C69.4775 24.6667 69.7948 23.2947 70.4295 22.1C71.0828 20.9054 71.9602 19.9814 73.0615 19.328C74.1815 18.656 75.4135 18.32 76.7575 18.32C77.9708 18.32 79.0255 18.5627 79.9215 19.048C80.8362 19.5147 81.5642 20.1027 82.1055 20.812V18.572H85.3255V34H82.1055V31.704C81.5642 32.432 80.8268 33.0387 79.8935 33.524C78.9602 34.0094 77.8962 34.252 76.7015 34.252C75.3762 34.252 74.1628 33.916 73.0615 33.244C71.9602 32.5534 71.0828 31.6014 70.4295 30.388C69.7948 29.156 69.4775 27.7654 69.4775 26.216ZM82.1055 26.272C82.1055 25.208 81.8815 24.284 81.4335 23.5C81.0042 22.716 80.4348 22.1187 79.7255 21.708C79.0162 21.2974 78.2508 21.092 77.4295 21.092C76.6082 21.092 75.8428 21.2974 75.1335 21.708C74.4242 22.1 73.8455 22.688 73.3975 23.472C72.9682 24.2374 72.7535 25.152 72.7535 26.216C72.7535 27.28 72.9682 28.2134 73.3975 29.016C73.8455 29.8187 74.4242 30.4347 75.1335 30.864C75.8615 31.2747 76.6268 31.48 77.4295 31.48C78.2508 31.48 79.0162 31.2747 79.7255 30.864C80.4348 30.4534 81.0042 29.856 81.4335 29.072C81.8815 28.2694 82.1055 27.336 82.1055 26.272Z" fill="#101828"/>
<path d="M103.406 18.572L93.9421 41.252H90.6381L93.7741 33.748L87.6981 18.572H91.2541L95.5941 30.332L100.102 18.572H103.406Z" fill="#101828"/>
<path d="M119.955 25.908C119.955 26.4867 119.918 27.0094 119.843 27.476H108.055C108.148 28.708 108.606 29.6974 109.427 30.444C110.248 31.1907 111.256 31.564 112.451 31.564C114.168 31.564 115.382 30.8454 116.091 29.408H119.535C119.068 30.8267 118.219 31.9934 116.987 32.908C115.774 33.804 114.262 34.252 112.451 34.252C110.976 34.252 109.651 33.9254 108.475 33.272C107.318 32.6 106.403 31.6667 105.731 30.472C105.078 29.2587 104.751 27.8587 104.751 26.272C104.751 24.6854 105.068 23.2947 105.703 22.1C106.356 20.8867 107.262 19.9534 108.419 19.3C109.595 18.6467 110.939 18.32 112.451 18.32C113.907 18.32 115.204 18.6374 116.343 19.272C117.482 19.9067 118.368 20.8027 119.003 21.96C119.638 23.0987 119.955 24.4147 119.955 25.908ZM116.623 24.9C116.604 23.724 116.184 22.7814 115.363 22.072C114.542 21.3627 113.524 21.008 112.311 21.008C111.21 21.008 110.267 21.3627 109.483 22.072C108.699 22.7627 108.232 23.7054 108.083 24.9H116.623Z" fill="#101828"/>
<path d="M126.288 20.812C126.755 20.028 127.371 19.4214 128.136 18.992C128.92 18.544 129.844 18.32 130.908 18.32V21.624H130.096C128.846 21.624 127.894 21.9414 127.24 22.576C126.606 23.2107 126.288 24.312 126.288 25.88V34H123.096V18.572H126.288V20.812Z" fill="#101828"/>
<path d="M139.442 34.252C138.229 34.252 137.137 34.0374 136.166 33.608C135.214 33.16 134.458 32.5627 133.898 31.816C133.338 31.0507 133.04 30.2014 133.002 29.268H136.306C136.362 29.9214 136.67 30.472 137.23 30.92C137.809 31.3494 138.528 31.564 139.386 31.564C140.282 31.564 140.973 31.396 141.458 31.06C141.962 30.7054 142.214 30.2574 142.214 29.716C142.214 29.1374 141.934 28.708 141.374 28.428C140.833 28.148 139.965 27.84 138.77 27.504C137.613 27.1867 136.67 26.8787 135.942 26.58C135.214 26.2814 134.58 25.824 134.038 25.208C133.516 24.592 133.254 23.78 133.254 22.772C133.254 21.9507 133.497 21.204 133.982 20.532C134.468 19.8414 135.158 19.3 136.054 18.908C136.969 18.516 138.014 18.32 139.19 18.32C140.945 18.32 142.354 18.768 143.418 19.664C144.501 20.5414 145.08 21.7454 145.154 23.276H141.962C141.906 22.5854 141.626 22.0347 141.122 21.624C140.618 21.2134 139.937 21.008 139.078 21.008C138.238 21.008 137.594 21.1667 137.146 21.484C136.698 21.8014 136.474 22.2214 136.474 22.744C136.474 23.1547 136.624 23.5 136.922 23.78C137.221 24.06 137.585 24.284 138.014 24.452C138.444 24.6014 139.078 24.7974 139.918 25.04C141.038 25.3387 141.953 25.6467 142.662 25.964C143.39 26.2627 144.016 26.7107 144.538 27.308C145.061 27.9054 145.332 28.6987 145.35 29.688C145.35 30.5654 145.108 31.3494 144.622 32.04C144.137 32.7307 143.446 33.272 142.55 33.664C141.673 34.056 140.637 34.252 139.442 34.252Z" fill="#101828"/>
</svg>
