<svg width="187" height="48" viewBox="0 0 187 48" fill="none" xmlns="http://www.w3.org/2000/svg">
<path fill-rule="evenodd" clip-rule="evenodd" d="M22 36.4667C28.8851 36.4667 34.4667 30.8851 34.4667 24C34.4667 17.1149 28.8851 11.5333 22 11.5333C15.1148 11.5333 9.53333 17.1149 9.53333 24C9.53333 30.8851 15.1148 36.4667 22 36.4667ZM22 46C34.1503 46 44 36.1503 44 24C44 11.8497 34.1503 2 22 2C9.84973 2 0 11.8497 0 24C0 36.1503 9.84973 46 22 46Z" fill="#6938EF"/>
<path d="M22.252 24.4819C24.5431 22.1908 28.2577 22.1908 30.5488 24.4819L41.9567 35.8898C44.2478 38.1809 44.2478 41.8955 41.9567 44.1866C39.6657 46.4776 35.9511 46.4776 33.66 44.1866L22.252 32.7786C19.961 30.4875 19.961 26.7729 22.252 24.4819Z" fill="#F670C7"/>
<path d="M25.4551 35.9816L32.7004 43.2269C36.1756 41.2887 39.0709 38.4357 41.0605 34.9936L33.8746 27.8076C32.6124 31.747 29.4441 34.8334 25.4551 35.9816Z" fill="#6519BA"/>
<path d="M79.5198 36.0999C78.8851 36.8839 78.1105 37.4812 77.1958 37.8919C76.2998 38.3025 75.3105 38.5079 74.2278 38.5079C72.7718 38.5079 71.4558 38.1905 70.2798 37.5559C69.1038 36.9399 67.7598 35.8385 66.2478 34.2519C64.4745 34.0279 62.8878 33.4585 61.4878 32.5439C60.1065 31.6292 59.0238 30.4532 58.2398 29.0159C57.4745 27.5599 57.0918 25.9545 57.0918 24.1999C57.0918 22.2772 57.5491 20.5505 58.4638 19.0199C59.3971 17.4705 60.6758 16.2572 62.2998 15.3799C63.9425 14.5025 65.7811 14.0639 67.8158 14.0639C69.8505 14.0639 71.6798 14.5025 73.3038 15.3799C74.9278 16.2572 76.2065 17.4705 77.1398 19.0199C78.0731 20.5505 78.5398 22.2772 78.5398 24.1999C78.5398 26.4772 77.8958 28.4745 76.6078 30.1919C75.3385 31.9092 73.6491 33.1039 71.5398 33.7759C72.0065 34.2612 72.4545 34.6065 72.8838 34.8119C73.3318 35.0359 73.8078 35.1479 74.3118 35.1479C75.5251 35.1479 76.5891 34.6625 77.5038 33.6919L79.5198 36.0999ZM61.6838 24.1999C61.6838 25.4132 61.9451 26.4959 62.4678 27.4479C63.0091 28.3999 63.7465 29.1465 64.6798 29.6879C65.6131 30.2105 66.6585 30.4719 67.8158 30.4719C68.9731 30.4719 70.0185 30.2105 70.9518 29.6879C71.8851 29.1465 72.6131 28.3999 73.1358 27.4479C73.6771 26.4959 73.9478 25.4132 73.9478 24.1999C73.9478 22.9865 73.6771 21.9039 73.1358 20.9519C72.6131 19.9999 71.8851 19.2625 70.9518 18.7399C70.0185 18.1985 68.9731 17.9279 67.8158 17.9279C66.6585 17.9279 65.6131 18.1985 64.6798 18.7399C63.7465 19.2625 63.0091 19.9999 62.4678 20.9519C61.9451 21.9039 61.6838 22.9865 61.6838 24.1999Z" fill="#101828"/>
<path d="M96.8168 18.9359V33.9999H92.6728V32.2079C92.0941 32.8612 91.4035 33.3652 90.6008 33.7199C89.7981 34.0559 88.9301 34.2239 87.9968 34.2239C86.0181 34.2239 84.4501 33.6545 83.2928 32.5159C82.1355 31.3772 81.5568 29.6879 81.5568 27.4479V18.9359H85.9248V26.8039C85.9248 29.2305 86.9421 30.4439 88.9768 30.4439C90.0221 30.4439 90.8621 30.1079 91.4968 29.4359C92.1315 28.7452 92.4488 27.7279 92.4488 26.3839V18.9359H96.8168Z" fill="#101828"/>
<path d="M108.031 34.2239C106.445 34.2239 105.017 33.8972 103.747 33.2439C102.497 32.5719 101.517 31.6479 100.807 30.4719C100.098 29.2959 99.7435 27.9612 99.7435 26.4679C99.7435 24.9745 100.098 23.6399 100.807 22.4639C101.517 21.2879 102.497 20.3732 103.747 19.7199C105.017 19.0479 106.445 18.7119 108.031 18.7119C109.618 18.7119 111.037 19.0479 112.287 19.7199C113.538 20.3732 114.518 21.2879 115.227 22.4639C115.937 23.6399 116.291 24.9745 116.291 26.4679C116.291 27.9612 115.937 29.2959 115.227 30.4719C114.518 31.6479 113.538 32.5719 112.287 33.2439C111.037 33.8972 109.618 34.2239 108.031 34.2239ZM108.031 30.6399C109.151 30.6399 110.066 30.2665 110.775 29.5199C111.503 28.7545 111.867 27.7372 111.867 26.4679C111.867 25.1985 111.503 24.1905 110.775 23.4439C110.066 22.6785 109.151 22.2959 108.031 22.2959C106.911 22.2959 105.987 22.6785 105.259 23.4439C104.531 24.1905 104.167 25.1985 104.167 26.4679C104.167 27.7372 104.531 28.7545 105.259 29.5199C105.987 30.2665 106.911 30.6399 108.031 30.6399Z" fill="#101828"/>
<path d="M128.927 33.2719C128.498 33.5892 127.966 33.8319 127.331 33.9999C126.715 34.1492 126.062 34.2239 125.371 34.2239C123.579 34.2239 122.188 33.7665 121.199 32.8519C120.228 31.9372 119.743 30.5932 119.743 28.8199V22.6319H117.419V19.2719H119.743V15.6039H124.111V19.2719H127.863V22.6319H124.111V28.7639C124.111 29.3985 124.27 29.8932 124.587 30.2479C124.923 30.5839 125.39 30.7519 125.987 30.7519C126.678 30.7519 127.266 30.5652 127.751 30.1919L128.927 33.2719Z" fill="#101828"/>
<path d="M131.379 18.9359H135.747V33.9999H131.379V18.9359ZM133.563 16.8359C132.76 16.8359 132.107 16.6025 131.603 16.1359C131.099 15.6692 130.847 15.0905 130.847 14.3999C130.847 13.7092 131.099 13.1305 131.603 12.6639C132.107 12.1972 132.76 11.9639 133.563 11.9639C134.366 11.9639 135.019 12.1879 135.523 12.6359C136.027 13.0839 136.279 13.6439 136.279 14.3159C136.279 15.0439 136.027 15.6505 135.523 16.1359C135.019 16.6025 134.366 16.8359 133.563 16.8359Z" fill="#101828"/>
<path d="M154.557 26.5239C154.557 26.5799 154.529 26.9719 154.473 27.6999H143.077C143.282 28.6332 143.768 29.3705 144.533 29.9119C145.298 30.4532 146.25 30.7239 147.389 30.7239C148.173 30.7239 148.864 30.6119 149.461 30.3879C150.077 30.1452 150.646 29.7719 151.169 29.2679L153.493 31.7879C152.074 33.4119 150.002 34.2239 147.277 34.2239C145.578 34.2239 144.076 33.8972 142.769 33.2439C141.462 32.5719 140.454 31.6479 139.745 30.4719C139.036 29.2959 138.681 27.9612 138.681 26.4679C138.681 24.9932 139.026 23.6679 139.717 22.4919C140.426 21.2972 141.388 20.3732 142.601 19.7199C143.833 19.0479 145.205 18.7119 146.717 18.7119C148.192 18.7119 149.526 19.0292 150.721 19.6639C151.916 20.2985 152.849 21.2132 153.521 22.4079C154.212 23.5839 154.557 24.9559 154.557 26.5239ZM146.745 22.0159C145.756 22.0159 144.925 22.2959 144.253 22.8559C143.581 23.4159 143.17 24.1812 143.021 25.1519H150.441C150.292 24.1999 149.881 23.4439 149.209 22.8839C148.537 22.3052 147.716 22.0159 146.745 22.0159Z" fill="#101828"/>
<path d="M166.621 18.7119C168.488 18.7119 169.99 19.2719 171.129 20.3919C172.286 21.5119 172.865 23.1732 172.865 25.3759V33.9999H168.497V26.0479C168.497 24.8532 168.236 23.9665 167.713 23.3879C167.19 22.7905 166.434 22.4919 165.445 22.4919C164.344 22.4919 163.466 22.8372 162.813 23.5279C162.16 24.1999 161.833 25.2079 161.833 26.5519V33.9999H157.465V18.9359H161.637V20.6999C162.216 20.0652 162.934 19.5799 163.793 19.2439C164.652 18.8892 165.594 18.7119 166.621 18.7119Z" fill="#101828"/>
<path d="M186.54 33.2719C186.111 33.5892 185.579 33.8319 184.944 33.9999C184.328 34.1492 183.675 34.2239 182.984 34.2239C181.192 34.2239 179.802 33.7665 178.812 32.8519C177.842 31.9372 177.356 30.5932 177.356 28.8199V22.6319H175.032V19.2719H177.356V15.6039H181.724V19.2719H185.476V22.6319H181.724V28.7639C181.724 29.3985 181.883 29.8932 182.2 30.2479C182.536 30.5839 183.003 30.7519 183.6 30.7519C184.291 30.7519 184.879 30.5652 185.364 30.1919L186.54 33.2719Z" fill="#101828"/>
</svg>
