<svg width="184" height="48" viewBox="0 0 184 48" fill="none" xmlns="http://www.w3.org/2000/svg">
<path d="M16.2141 33.4284C24.8929 33.4284 31.9284 26.3929 31.9284 17.7141C31.9284 16.7306 31.8381 15.7681 31.6652 14.8345C30.7316 14.6617 29.7692 14.5713 28.7856 14.5713C20.1068 14.5713 13.0713 21.6068 13.0713 30.2856C13.0713 31.2692 13.1617 32.2317 13.3345 33.1652C14.2681 33.3381 15.2306 33.4284 16.2141 33.4284Z" fill="#175CD3"/>
<path fill-rule="evenodd" clip-rule="evenodd" d="M13.3347 33.1653C6.03118 31.8127 0.5 25.4095 0.5 17.7143C0.5 9.03553 7.53553 2 16.2143 2C23.9095 2 30.3128 7.53118 31.6653 14.8347C30.7318 14.6618 29.7693 14.5714 28.7857 14.5714C20.107 14.5714 13.0714 21.607 13.0714 30.2857C13.0714 31.2693 13.1618 32.2318 13.3347 33.1653Z" fill="#1570EF"/>
<path fill-rule="evenodd" clip-rule="evenodd" d="M16.2146 33.4284C24.8933 33.4284 31.9289 26.3928 31.9289 17.7141C31.9289 16.7305 31.8385 15.768 31.6656 14.8345C38.9691 16.187 44.5003 22.5903 44.5003 30.2855C44.5003 38.9643 37.4648 45.9998 28.786 45.9998C21.0908 45.9998 14.6875 40.4686 13.335 33.1651C14.2685 33.338 15.231 33.4284 16.2146 33.4284Z" fill="#2E90FA"/>
<path d="M74.7284 28.9042C74.1684 30.7148 73.1884 32.0682 71.7884 32.9642C70.3884 33.8415 68.755 34.2802 66.8884 34.2802C65.059 34.2802 63.4724 33.8975 62.1284 33.1322C60.803 32.3668 59.7764 31.2748 59.0484 29.8562C58.339 28.4375 57.9844 26.7388 57.9844 24.7602C57.9844 22.7815 58.3484 21.0828 59.0764 19.6642C59.8044 18.2455 60.831 17.1535 62.1564 16.3882C63.4817 15.6228 65.0404 15.2402 66.8324 15.2402C68.7177 15.2402 70.3324 15.6415 71.6764 16.4442C73.039 17.2282 73.9724 18.4228 74.4764 20.0282L70.9764 21.5122C70.659 20.3922 70.1737 19.5988 69.5204 19.1322C68.867 18.6468 68.027 18.4042 67.0004 18.4042C65.4697 18.4042 64.247 18.9548 63.3324 20.0562C62.4364 21.1388 61.9884 22.7068 61.9884 24.7602C61.9884 26.7948 62.4177 28.3628 63.2764 29.4642C64.135 30.5655 65.3764 31.1162 67.0004 31.1162C68.0084 31.1162 68.8764 30.8455 69.6044 30.3042C70.351 29.7628 70.8737 28.9415 71.1724 27.8402L74.7284 28.9042Z" fill="#101828"/>
<path d="M79.5617 17.9842C77.975 17.9842 77.1817 17.3028 77.1817 15.9402C77.1817 14.5588 77.975 13.8682 79.5617 13.8682C81.1483 13.8682 81.9417 14.5588 81.9417 15.9402C81.9417 17.3028 81.1483 17.9842 79.5617 17.9842ZM81.4657 20.0002V34.0002H77.6297V20.0002H81.4657Z" fill="#101828"/>
<path d="M85.532 34.0002V20.0002H88.864L89.116 22.7442C89.4707 21.7922 90.0027 21.0548 90.712 20.5322C91.44 19.9908 92.3547 19.7202 93.456 19.7202C94.1093 19.7202 94.6133 19.8228 94.968 20.0282L94.52 23.2482C94.3333 23.1922 94.1 23.1455 93.82 23.1082C93.5587 23.0522 93.2133 23.0242 92.784 23.0242C92.2053 23.0242 91.6547 23.1642 91.132 23.4442C90.628 23.7055 90.208 24.1162 89.872 24.6762C89.536 25.2175 89.368 25.9082 89.368 26.7482V34.0002H85.532Z" fill="#101828"/>
<path d="M103.427 19.7202C105.294 19.7202 106.74 20.1215 107.767 20.9242C108.812 21.7268 109.503 22.6975 109.839 23.8362L106.255 25.1242C105.882 23.4255 104.958 22.5762 103.483 22.5762C102.419 22.5762 101.588 22.9495 100.991 23.6962C100.412 24.4428 100.123 25.5535 100.123 27.0282C100.123 28.5215 100.422 29.6322 101.019 30.3602C101.635 31.0695 102.466 31.4242 103.511 31.4242C105.135 31.4242 106.106 30.5935 106.423 28.9322L109.895 30.0522C109.578 31.3028 108.868 32.3202 107.767 33.1042C106.684 33.8882 105.275 34.2802 103.539 34.2802C102.083 34.2802 100.804 33.9908 99.703 33.4122C98.6204 32.8335 97.7804 32.0028 97.1831 30.9202C96.5857 29.8375 96.2871 28.5308 96.2871 27.0002C96.2871 25.4695 96.5857 24.1628 97.1831 23.0802C97.799 21.9975 98.639 21.1668 99.703 20.5882C100.786 20.0095 102.027 19.7202 103.427 19.7202Z" fill="#101828"/>
<path d="M119.26 19.7202C120.66 19.7202 121.901 20.0095 122.984 20.5882C124.066 21.1668 124.906 21.9975 125.504 23.0802C126.12 24.1628 126.428 25.4695 126.428 27.0002C126.428 28.5308 126.12 29.8375 125.504 30.9202C124.906 32.0028 124.066 32.8335 122.984 33.4122C121.901 33.9908 120.66 34.2802 119.26 34.2802C117.841 34.2802 116.59 33.9908 115.508 33.4122C114.444 32.8335 113.604 32.0028 112.988 30.9202C112.39 29.8375 112.092 28.5308 112.092 27.0002C112.092 25.4695 112.39 24.1628 112.988 23.0802C113.604 21.9975 114.444 21.1668 115.508 20.5882C116.59 20.0095 117.841 19.7202 119.26 19.7202ZM119.26 22.5762C118.214 22.5762 117.393 22.9495 116.796 23.6962C116.217 24.4242 115.928 25.5255 115.928 27.0002C115.928 28.4748 116.217 29.5855 116.796 30.3322C117.393 31.0602 118.214 31.4242 119.26 31.4242C120.286 31.4242 121.089 31.0602 121.668 30.3322C122.265 29.5855 122.564 28.4748 122.564 27.0002C122.564 25.5255 122.265 24.4242 121.668 23.6962C121.089 22.9495 120.286 22.5762 119.26 22.5762Z" fill="#101828"/>
<path d="M136.021 19.7202C137.421 19.7202 138.663 20.0095 139.745 20.5882C140.828 21.1668 141.668 21.9975 142.265 23.0802C142.881 24.1628 143.189 25.4695 143.189 27.0002C143.189 28.5308 142.881 29.8375 142.265 30.9202C141.668 32.0028 140.828 32.8335 139.745 33.4122C138.663 33.9908 137.421 34.2802 136.021 34.2802C134.603 34.2802 133.352 33.9908 132.269 33.4122C131.205 32.8335 130.365 32.0028 129.749 30.9202C129.152 29.8375 128.853 28.5308 128.853 27.0002C128.853 25.4695 129.152 24.1628 129.749 23.0802C130.365 21.9975 131.205 21.1668 132.269 20.5882C133.352 20.0095 134.603 19.7202 136.021 19.7202ZM136.021 22.5762C134.976 22.5762 134.155 22.9495 133.557 23.6962C132.979 24.4242 132.689 25.5255 132.689 27.0002C132.689 28.4748 132.979 29.5855 133.557 30.3322C134.155 31.0602 134.976 31.4242 136.021 31.4242C137.048 31.4242 137.851 31.0602 138.429 30.3322C139.027 29.5855 139.325 28.4748 139.325 27.0002C139.325 25.5255 139.027 24.4242 138.429 23.6962C137.851 22.9495 137.048 22.5762 136.021 22.5762Z" fill="#101828"/>
<path d="M150.179 13.8682V29.6882C150.179 30.3415 150.291 30.7988 150.515 31.0602C150.739 31.3215 151.112 31.4522 151.635 31.4522C151.952 31.4522 152.214 31.4335 152.419 31.3962C152.625 31.3588 152.886 31.2842 153.203 31.1722L152.867 33.6922C152.55 33.8788 152.148 34.0188 151.663 34.1122C151.196 34.2242 150.73 34.2802 150.263 34.2802C148.9 34.2802 147.902 33.9535 147.267 33.3002C146.651 32.6282 146.343 31.5642 146.343 30.1082V13.8682H150.179Z" fill="#101828"/>
<path d="M161.837 34.2802C159.634 34.2802 157.87 33.6455 156.545 32.3762C155.219 31.0882 154.557 29.2962 154.557 27.0002C154.557 25.4695 154.855 24.1628 155.453 23.0802C156.05 21.9975 156.881 21.1668 157.945 20.5882C159.027 20.0095 160.259 19.7202 161.641 19.7202C163.059 19.7202 164.263 20.0095 165.253 20.5882C166.242 21.1482 166.998 21.9228 167.521 22.9122C168.043 23.8828 168.305 24.9935 168.305 26.2442C168.305 26.6175 168.295 26.9722 168.277 27.3082C168.258 27.6442 168.23 27.9428 168.193 28.2042H158.309C158.458 29.2868 158.831 30.0988 159.429 30.6402C160.045 31.1628 160.838 31.4242 161.809 31.4242C162.63 31.4242 163.293 31.2655 163.797 30.9482C164.301 30.6308 164.693 30.1922 164.973 29.6322L168.025 30.8082C167.577 31.9095 166.793 32.7682 165.673 33.3842C164.553 33.9815 163.274 34.2802 161.837 34.2802ZM161.613 22.5482C159.802 22.5482 158.71 23.5468 158.337 25.5442H164.637C164.525 24.5735 164.207 23.8362 163.685 23.3322C163.181 22.8095 162.49 22.5482 161.613 22.5482Z" fill="#101828"/>
<path d="M177.155 34.2802C175.737 34.2802 174.439 34.0282 173.263 33.5242C172.106 33.0202 171.163 32.3108 170.435 31.3962L172.647 29.1562C173.095 29.8282 173.693 30.3788 174.439 30.8082C175.186 31.2375 176.073 31.4522 177.099 31.4522C177.827 31.4522 178.406 31.3495 178.835 31.1442C179.283 30.9202 179.507 30.5748 179.507 30.1082C179.507 29.8095 179.405 29.5575 179.199 29.3522C178.994 29.1282 178.583 28.9508 177.967 28.8202L175.503 28.3162C173.879 27.9802 172.722 27.4762 172.031 26.8042C171.359 26.1135 171.023 25.2268 171.023 24.1442C171.023 23.3788 171.247 22.6602 171.695 21.9882C172.162 21.3162 172.853 20.7748 173.767 20.3642C174.682 19.9348 175.821 19.7202 177.183 19.7202C180.021 19.7202 182.055 20.5882 183.287 22.3242L180.991 24.5642C180.581 23.9108 180.039 23.4162 179.367 23.0802C178.714 22.7255 178.023 22.5482 177.295 22.5482C175.653 22.5482 174.831 23.0055 174.831 23.9202C174.831 24.2188 174.962 24.4802 175.223 24.7042C175.485 24.9095 175.961 25.0868 176.651 25.2362L179.507 25.8242C180.889 26.1042 181.878 26.5802 182.475 27.2522C183.073 27.9055 183.371 28.6988 183.371 29.6322C183.371 30.9762 182.83 32.0868 181.747 32.9642C180.683 33.8415 179.153 34.2802 177.155 34.2802Z" fill="#101828"/>
</svg>
